<svg width="35" height="31" viewBox="0 0 35 31" fill="none" xmlns="http://www.w3.org/2000/svg">
<path d="M29.7523 8.25477H33.9951V12.8166H29.7523V21.5335C29.7523 24.5003 29.9364 24.4915 30.3047 24.8391C30.6729 25.1866 31.4094 25.3604 32.5142 25.3604C32.8824 25.4039 33.2047 25.3604 33.5729 25.317C33.8951 25.317 34.3403 25.0709 34.5705 24.8391V29.6181C33.9951 29.8634 33.3428 30.1394 32.6983 30.1394C32.0078 30.1829 31.3634 30.1829 30.719 30.1829C30.6758 30.1829 29.947 30.1829 29.6401 30.1394C28.8926 30.0336 27.7809 29.6398 27.0904 29.2488C26.7068 29.0316 25.7094 28.0541 25.5944 27.6196C25.2491 27.0765 25.0571 26.0121 25.0571 24.8825V12.8166H20.9912V8.25477H25.0571V0.651764H29.7523V8.25477Z" fill="#10239E"/>
<path fill-rule="evenodd" clip-rule="evenodd" d="M0.737305 12.8166H3.95951V29.6615H9.11508V12.8166H12.9357L12.9357 8.25478H9.11505L9.11508 7.86376C9.11508 6.95141 9.2992 6.08499 9.66745 5.69398C10.0357 5.30297 10.6801 5.08574 11.6008 5.08574C12.4293 5.08574 13.2119 5.12919 13.9944 5.21608V0.65177L12.2452 0.651764L10.519 0.65177C8.3325 0.65177 6.60632 1.70421 5.57061 2.71544C4.2357 4.01881 3.95951 5.51769 3.95951 7.47275L3.95948 8.25478H0.737282L0.737305 12.8166ZM19.6102 14.7716H14.5928V29.6615H19.6102V14.7716Z" fill="#10239E"/>
<path d="M19.6102 10.5792C19.6102 11.9026 18.517 12.9754 17.1936 12.9754C15.8702 12.9754 14.7769 11.9026 14.7769 10.5792C14.7769 9.25573 15.8702 8.18288 17.1936 8.18288C18.517 8.18288 19.6102 9.25574 19.6102 10.5792Z" fill="#40A9FF"/>
</svg>
